# xmcd CD database file
#
# Track frame offsets:
#	150
#	22692
#	42701
#	72190
#	92445
#	112705
#	134826
#	154427
#	174858
#	196468
#	215715
#	238835
#	261473
#	279714
#	297672
#	322259
#
# Disc length: 4679 seconds
#
# Revision: 0
# Processed by: cddbd v1.5.1PL0 Copyright (c) Steve Scherf et al.
# Submitted via: CDex 1.50
#
DISCID=00124510
DTITLE=Chris Rea - Forever Gold CD1
DYEAR=2001
DGENRE=Blues
TTITLE0=King of the beach
TTITLE1=You warm and tender love
TTITLE2=Johnny needs a fast cag
TTITLE3=The road to hell
TTITLE4=Josephine
TTITLE5=I'm still holding on
TTITLE6=You must be evil
TTITLE7=Where do we go from here
TTITLE8=Shadows of the big man
TTITLE9=Hello friend
TTITLE10=Every second count
TTITLE11=Looking for the summer
TTITLE12=Windy town
TTITLE13=Stick by you
TTITLE14=And you my love
TTITLE15=Curse of the traveller
EXTD=YEAR: 2001
EXTT0=
EXTT1=
EXTT2=
EXTT3=
EXTT4=
EXTT5=
EXTT6=
EXTT7=
EXTT8=
EXTT9=
EXTT10=
EXTT11=
EXTT12=
EXTT13=
EXTT14=
EXTT15=
PLAYORDER=
